<svg width="38" height="38" viewBox="0 0 38 38" fill="none" xmlns="http://www.w3.org/2000/svg">
<g clip-path="url(#clip0_2_9)">
<circle cx="19" cy="19" r="19" fill="#0F0251"/>
<path d="M27.8152 17.5927H14.3012L22.3897 10.3343C22.5191 10.2173 22.4406 10 22.2696 10H20.2256C20.1355 10 20.05 10.0334 19.983 10.0931L11.2547 17.9222C11.1747 17.9938 11.1106 18.0824 11.0667 18.1819C11.0227 18.2814 11 18.3894 11 18.4988C11 18.6082 11.0227 18.7163 11.0667 18.8157C11.1106 18.9152 11.1747 19.0038 11.2547 19.0754L20.0338 26.9522C20.0685 26.9833 20.1101 27 20.1539 27H22.2673C22.4382 27 22.5168 26.7803 22.3874 26.6657L14.3012 19.4073H27.8152C27.9169 19.4073 28 19.3213 28 19.2163V17.7837C28 17.6787 27.9169 17.5927 27.8152 17.5927Z" fill="white"/>
</g>
<defs>
<clipPath id="clip0_2_9">
<rect width="38" height="38" fill="white"/>
</clipPath>
</defs>
</svg>
