<svg xmlns="http://www.w3.org/2000/svg" viewBox="0 0 432.65 202.65"><defs><style>.cls-1{fill:#5ba53c;}</style></defs><g id="Layer_2" data-name="Layer 2"><g id="LEAVES_CIRCLES" data-name="LEAVES &amp; CIRCLES"><path class="cls-1" d="M432.65,91c0-21.16-28.23-38.31-63-38.31a104.24,104.24,0,0,0-11.3.62c-10-13.67-27.76-23.24-48.45-24.8C300.48,12.12,268,0,229.4,0c-26.45,0-50,5.69-65.23,14.55-2.16-.08-4.34-.13-6.55-.13-45.94,0-83.18,17.15-83.18,38.31A18.28,18.28,0,0,0,75.25,58Q69.4,60.32,64,62.84c-2.79-.2-5.65-.3-8.56-.3C24.83,62.54,0,74,0,88.07c0,6.9,5.94,13.14,15.57,17.74a40.07,40.07,0,0,0-2.84,14.67c0,45.38,79.89,82.17,178.43,82.17,35.45,0,68.49-4.76,96.26-13A64,64,0,0,0,318,197.09c28.52,0,51.65-17.15,51.65-38.3a28.89,28.89,0,0,0-.51-5.36c24.37-6.67,40.72-18.91,40.75-32.91C423.78,113.5,432.65,102.9,432.65,91Z"/></g></g></svg>