<svg xmlns="http://www.w3.org/2000/svg" viewBox="0 0 435.82 229.32"><defs><style>.cls-1{fill:#708225;}</style></defs><g id="Layer_2" data-name="Layer 2"><g id="LEAVES_CIRCLES" data-name="LEAVES &amp; CIRCLES"><path class="cls-1" d="M435.82,145.28c0-19.58-20.3-36.6-50.16-45.27,10.52-7,16.82-15.89,16.82-25.58,0-22.58-34.23-40.89-76.47-40.89a132.06,132.06,0,0,0-35.66,4.72C288.8,16.9,268.52,0,243.73,0c-16.42,0-30.84,7.41-39.18,18.61A134.68,134.68,0,0,0,173.07,15c-36.73,0-67.41,13.85-74.78,32.32C40,63,0,95.29,0,132.57,0,185.27,79.89,228,178.43,228c9.6,0,19-.41,28.21-1.19a293.79,293.79,0,0,0,38.88,2.52c54.51,0,100.89-14.26,118.14-34.18C405.1,189.58,435.82,169.37,435.82,145.28Z"/></g></g></svg>