<svg xmlns="http://www.w3.org/2000/svg" viewBox="0 0 433.34 258.35"><defs><style>.cls-1{fill:#366329;}</style></defs><g id="Layer_2" data-name="Layer 2"><g id="LEAVES_CIRCLES" data-name="LEAVES &amp; CIRCLES"><path class="cls-1" d="M433.34,97.28c0-21.37-29.06-38.7-64.9-38.7a106.51,106.51,0,0,0-15.91,1.18l-2.81-1.39a57.73,57.73,0,0,0,.44-7C350.16,23,329.29,0,303.54,0c-21.12,0-39,15.48-44.68,36.7-18.07-10.58-44.39-17.25-73.72-17.25-41.84,0-77.59,13.57-91.91,32.73C37.69,69.27,0,102.55,0,140.8c0,52,69.64,94.8,159.09,100.25,8.54,10.61,21,17.3,34.88,17.3,14.76,0,27.91-7.56,36.46-19.36a215.66,215.66,0,0,0,33.87,2.65c81.87,0,148.25-45.15,148.25-100.84a70,70,0,0,0-1.5-14.35C424.7,119.36,433.34,108.92,433.34,97.28Z"/></g></g></svg>