<svg xmlns="http://www.w3.org/2000/svg" viewBox="0 0 436.47 239.48"><defs><style>.cls-1{fill:#53932a;}</style></defs><g id="Layer_2" data-name="Layer 2"><g id="LEAVES_CIRCLES" data-name="LEAVES &amp; CIRCLES"><path class="cls-1" d="M418.73,163.23a56.19,56.19,0,0,0,7.77-27.95c0-33.74-32.83-63.72-83.71-82.77a65.29,65.29,0,0,0,.52-8.12C343.31,19.87,329.56,0,312.6,0c-9.88,0-18.66,6.75-24.28,17.22C273.34,6.81,248.65,0,220.7,0,177,0,141.18,16.65,138.19,37.73c-11.5,2.11-22.52,4.7-33,7.7a62.73,62.73,0,0,0-25.09-4.85c-21.57,0-39.06,9.29-39.06,20.75,0,3.47,1.62,6.73,4.45,9.61C17,88.65,0,111,0,135.28c0,57.55,95.47,104.2,213.25,104.2,68.2,0,128.93-15.65,168-40a69.51,69.51,0,0,0,16.2,1.87c21.58,0,39.06-9.29,39.06-20.75C436.47,173.33,429.41,166.93,418.73,163.23Z"/></g></g></svg>