<svg xmlns="http://www.w3.org/2000/svg" viewBox="0 0 500.2 306.5"><defs><style>.cls-1{fill:#3c7220;}</style></defs><g id="Layer_2" data-name="Layer 2"><g id="LEAVES_CIRCLES" data-name="LEAVES &amp; CIRCLES"><path class="cls-1" d="M500.2,171.06c0-32.15-36.51-60.16-90.47-74.77a56.63,56.63,0,0,0,1-10.76C410.76,38.29,352,0,279.5,0c-50.16,0-93.75,18.34-115.84,45.29-9.52-15-24.89-24.72-42.24-24.72-25.84,0-47.29,21.58-51.55,49.94C27.39,91.76,0,125.19,0,162.78,0,227,79.89,279.06,178.43,279.06c41.15,0,79-9.08,109.22-24.33,3.05.32,6.14.59,9.25.83,3.89,28.85,25.55,50.94,51.7,50.94,28.36,0,51.44-26,52.28-58.43C459.66,234.22,500.2,204.94,500.2,171.06Z"/></g></g></svg>