<svg xmlns="http://www.w3.org/2000/svg" viewBox="0 0 508.93 269.94"><defs><style>.cls-1{fill:#708225;}</style></defs><g id="Layer_2" data-name="Layer 2"><g id="LEAVES_CIRCLES" data-name="LEAVES &amp; CIRCLES"><path class="cls-1" d="M437,130.33a40.38,40.38,0,0,0,6.43-21.47c0-29.59-34.93-54.38-81.86-60.9-4.67-27.51-22.23-48-43.18-48-16.45,0-30.81,12.62-38.48,31.35-19.29-11.48-46.08-18.6-75.7-18.6-58.76,0-106.39,28-106.39,62.57a37.47,37.47,0,0,0,1.12,9.09C39.52,101.52,0,131.91,0,166.55,0,220,94.13,263.37,210.24,263.37a449.61,449.61,0,0,0,52-3c23.84,6.08,51.27,9.55,80.46,9.55,91.81,0,166.23-34.28,166.23-76.56C508.93,167.23,480.45,144.14,437,130.33Z"/></g></g></svg>