<svg xmlns="http://www.w3.org/2000/svg" viewBox="0 0 463.3 286.55"><defs><style>.cls-1{fill:#366329;}</style></defs><g id="Layer_2" data-name="Layer 2"><g id="LEAVES_CIRCLES" data-name="LEAVES &amp; CIRCLES"><path class="cls-1" d="M463.3,154.24c0-25-16.58-48.17-44.64-66.93-1.82-22.23-15.12-39.49-31.27-39.49A23.3,23.3,0,0,0,377,50.34C360.46,38.51,335.84,30.74,308.1,30,292.22,12.15,260.48,0,223.91,0,173.33,0,132,23.23,129.07,52.54A320.83,320.83,0,0,0,83.58,67a57.92,57.92,0,0,0-26.23-6c-24.69,0-44.7,14.1-44.7,31.49A24.9,24.9,0,0,0,19.22,109C6.87,122.83,0,138.14,0,154.24c0,62.63,103.71,113.41,231.65,113.41h1.45c16.94,11.69,40.13,18.91,65.72,18.91,43.64,0,80.32-21,90.85-49.39C435,216.46,463.3,187,463.3,154.24Z"/></g></g></svg>