<svg xmlns="http://www.w3.org/2000/svg" viewBox="0 0 429.15 242.76"><defs><style>.cls-1{fill:#53932a;}</style></defs><g id="Layer_2" data-name="Layer 2"><g id="LEAVES_CIRCLES" data-name="LEAVES &amp; CIRCLES"><path class="cls-1" d="M349.87,70.47C348.17,47.74,334.57,30,318.05,30c-12,0-22.41,9.31-27.9,23.09-1.58-.75-3.18-1.49-4.81-2.2a23.55,23.55,0,0,0,.71-5.67c0-25-40.42-45.25-90.28-45.25-45.59,0-83.28,16.94-89.41,38.94C43.72,55.21,0,92,0,134.82,0,160.88,16.2,184.71,43,203a24.7,24.7,0,0,0-.91,6.61c0,18.29,20.26,33.11,45.25,33.11,12.14,0,23.15-3.5,31.28-9.19a293.13,293.13,0,0,0,59.82,6c41.95,0,80.5-8.5,111-22.72,3.23.14,6.5.21,9.79.21,71.78,0,130-34.17,130-76.32C429.15,109.18,396.46,82.07,349.87,70.47Z"/></g></g></svg>