<svg xmlns="http://www.w3.org/2000/svg" viewBox="0 0 430.16 256.91"><defs><style>.cls-1{fill:#7ab55e;}</style></defs><g id="Layer_2" data-name="Layer 2"><g id="LEAVES_CIRCLES" data-name="LEAVES &amp; CIRCLES"><path class="cls-1" d="M430.16,145.42c0-11.6-7.68-22-19.79-29-2.28-28.54-30.64-52-68-57.81C338,44.47,326.87,34.43,313.89,34.43c-9.07,0-17.22,4.91-22.82,12.7C281.45,20,247.69,0,207.5,0c-39.8,0-73.28,19.65-83.26,46.36C54.08,51.81,0,86.18,0,127.78c0,30.83,29.71,57.68,73.65,71.74,14.41,33.27,57.08,57.39,107.47,57.39,32,0,60.81-9.7,81.32-25.29a137.16,137.16,0,0,0,20.83,1.58c44.76,0,82.14-21.3,91.14-49.7C405.26,183.26,430.16,166.31,430.16,145.42Z"/></g></g></svg>