<svg xmlns="http://www.w3.org/2000/svg" viewBox="0 0 1318.02 248.61"><defs><style>.cls-1{fill:#243326;}</style></defs><g id="Layer_2" data-name="Layer 2"><g id="TREE"><path class="cls-1" d="M344.57,127.43c0-20.69,17-39.8,45.68-55.3,1.86-18.36,15.48-32.62,32-32.62a28.5,28.5,0,0,1,10.65,2.08c16.9-9.78,42.1-16.19,70.48-16.83C519.64,10,552.12,0,589.55,0c51.75,0,94.06,19.2,97,43.4a387.84,387.84,0,0,1,46.56,12,71,71,0,0,1,26.84-5c25.26,0,45.74,11.65,45.74,26,0,5-2.46,9.63-6.72,13.58,12.64,11.46,19.67,24.11,19.67,37.41,0,51.74-106.13,93.69-237.06,93.69h-1.48c-17.33,9.67-41.07,15.63-67.25,15.63-44.66,0-82.19-17.33-93-40.81C373.56,178.83,344.57,154.47,344.57,127.43Z"/><path class="cls-1" d="M0,119.33c0-18.74,17-36,45.68-50.09,1.87-16.64,15.48-29.55,32-29.55a30.91,30.91,0,0,1,10.65,1.88c16.91-8.86,42.1-14.67,70.48-15.25C175.07,13,207.55,3.89,245,3.89c51.76,0,94.06,17.39,97,39.32a420.85,420.85,0,0,1,46.55,10.85,77.7,77.7,0,0,1,26.84-4.49c25.27,0,45.75,10.55,45.75,23.57,0,4.51-2.46,8.72-6.72,12.3,12.64,10.38,19.66,21.84,19.66,33.89,0,46.87-106.13,84.88-237,84.88h-1.49c-17.33,8.75-41.06,14.15-67.25,14.15-44.65,0-82.19-15.69-93-37C29,165.89,0,143.82,0,119.33Z"/><path class="cls-1" d="M1318,149.58c0-18.73-17-36.05-45.68-50.09-1.86-16.64-15.48-29.55-32-29.55a31.15,31.15,0,0,0-10.65,1.88c-16.9-8.85-42.1-14.67-70.48-15.25C1143,43.24,1110.47,34.15,1073,34.15c-51.75,0-94.06,17.38-97,39.32a420.58,420.58,0,0,0-46.56,10.84,77.7,77.7,0,0,0-26.84-4.49c-25.26,0-45.74,10.56-45.74,23.57,0,4.51,2.46,8.72,6.72,12.31-12.64,10.38-19.67,21.83-19.67,33.88,0,46.88,106.13,84.88,237.06,84.88h1.48c17.33,8.76,41.06,14.16,67.25,14.16,44.65,0,82.19-15.7,93-37C1289,196.15,1318,174.08,1318,149.58Z"/></g></g></svg>