<svg id="BG" xmlns="http://www.w3.org/2000/svg" xmlns:xlink="http://www.w3.org/1999/xlink" viewBox="0 0 1920 1080"><defs><style>.cls-1{fill:url(#linear-gradient);}.cls-2{fill:#fff;}</style><linearGradient id="linear-gradient" x1="960" y1="1079.52" x2="960" y2="0.48" gradientUnits="userSpaceOnUse"><stop offset="0" stop-color="#98c2f4"/><stop offset="0.01" stop-color="#a8cbf5"/><stop offset="0.04" stop-color="#bfd8f5"/><stop offset="0.07" stop-color="#d1e2f6"/><stop offset="0.11" stop-color="#deeaf7"/><stop offset="0.15" stop-color="#e5eef7"/><stop offset="0.26" stop-color="#e7eff7"/><stop offset="0.46" stop-color="#e2eff7"/><stop offset="0.7" stop-color="#d4eff7"/><stop offset="0.94" stop-color="#bdeef7"/><stop offset="1" stop-color="#b7eef7"/></linearGradient></defs><rect class="cls-1" x="0.24" y="0.48" width="1919.53" height="1079.05"/><path class="cls-2" d="M511.58,862.48c0-44.79-59.76-81.09-133.47-81.09a219.84,219.84,0,0,0-23.92,1.32c-21.14-28.94-58.76-49.2-102.56-52.51-19.84-34.77-88.55-60.43-170.29-60.43-56,0-105.83,12.05-138.08,30.81-4.58-.17-9.19-.28-13.86-.28-97.24,0-176.07,36.31-176.07,81.09a39.06,39.06,0,0,0,1.7,11.18q-12.38,4.88-23.8,10.22-8.85-.63-18.1-.64c-64.83,0-117.38,24.2-117.38,54.06,0,14.58,12.56,27.81,32.95,37.53a84.84,84.84,0,0,0-6,31.06c0,96.07,169.11,174,377.71,174,75,0,145-10.08,203.76-27.46,18.1,9.86,40.43,15.69,64.61,15.69,60.39,0,109.34-36.31,109.34-81.09A61,61,0,0,0,377,994.55c51.6-14.12,86.21-40,86.28-69.66C492.79,910,511.58,887.58,511.58,862.48Z"/><path class="cls-2" d="M212.75,154.79c0-20.76-27.7-37.59-61.88-37.59a102.86,102.86,0,0,0-11.08.61C130,104.4,112.55,95,92.24,93.47c-9.2-16.12-41-28-78.94-28-25.95,0-49.06,5.58-64,14.27-2.12-.07-4.26-.12-6.42-.12-45.08,0-81.63,16.83-81.63,37.59a17.88,17.88,0,0,0,.79,5.18q-5.73,2.27-11,4.74-4.11-.3-8.39-.3c-30.06,0-54.42,11.22-54.42,25.06,0,6.76,5.83,12.9,15.28,17.4a39.31,39.31,0,0,0-2.79,14.4c0,44.54,78.4,80.64,175.1,80.64,34.79,0,67.2-4.67,94.45-12.73a62.94,62.94,0,0,0,30,7.27c28,0,50.68-16.83,50.68-37.59a28.57,28.57,0,0,0-.5-5.25c23.92-6.55,40-18.56,40-32.3C204,176.83,212.75,166.43,212.75,154.79Z"/><path class="cls-2" d="M2279.2,345.22c0-20.76-27.7-37.59-61.88-37.59a100.33,100.33,0,0,0-11.08.62c-9.81-13.42-27.25-22.81-47.55-24.34-9.2-16.13-41.05-28-78.94-28-26,0-49.06,5.59-64,14.28-2.12-.07-4.26-.13-6.43-.13-45.08,0-81.62,16.83-81.62,37.59a18,18,0,0,0,.79,5.19c-3.82,1.5-7.5,3.09-11,4.74q-4.11-.3-8.39-.3c-30.06,0-54.42,11.22-54.42,25.06,0,6.76,5.82,12.89,15.28,17.4a39.23,39.23,0,0,0-2.79,14.4c0,44.53,78.39,80.63,175.1,80.63,34.78,0,67.2-4.67,94.45-12.72a63.05,63.05,0,0,0,30,7.27c28,0,50.68-16.83,50.68-37.59a28.68,28.68,0,0,0-.5-5.26c23.92-6.54,40-18.55,40-32.29C2270.49,367.26,2279.2,356.86,2279.2,345.22Z"/><path class="cls-2" d="M2356.49,850.14c0-44.78-59.76-81.08-133.47-81.08a217,217,0,0,0-23.91,1.32c-21.15-28.94-58.77-49.2-102.57-52.51-19.84-34.78-88.55-60.43-170.29-60.43-56,0-105.83,12-138.08,30.8-4.58-.16-9.19-.27-13.86-.27-97.24,0-176.07,36.3-176.07,81.09a39.06,39.06,0,0,0,1.7,11.18q-12.37,4.88-23.8,10.22-8.85-.63-18.1-.64c-64.83,0-117.38,24.2-117.38,54,0,14.59,12.56,27.82,32.95,37.54a84.84,84.84,0,0,0-6,31.06c0,96.07,169.11,173.94,377.71,173.94,75,0,145-10.07,203.76-27.45,18.1,9.85,40.43,15.68,64.61,15.68,60.39,0,109.34-36.3,109.34-81.08a61,61,0,0,0-1.09-11.34c51.6-14.12,86.21-40,86.28-69.66C2337.7,897.69,2356.49,875.25,2356.49,850.14Z"/><path class="cls-2" d="M1893.17,88c0-14.58-19.45-26.39-43.45-26.39a70.62,70.62,0,0,0-7.78.43c-6.89-9.43-19.13-16-33.39-17.1-6.46-11.32-28.83-19.67-55.44-19.67-18.22,0-34.45,3.92-44.94,10-1.5-.06-3-.09-4.52-.09-31.65,0-57.31,11.82-57.31,26.4a12.48,12.48,0,0,0,.55,3.63c-2.68,1.06-5.27,2.17-7.75,3.33-1.92-.13-3.89-.21-5.89-.21-21.1,0-38.21,7.88-38.21,17.6,0,4.75,4.09,9.06,10.73,12.22a27.46,27.46,0,0,0-2,10.11c0,31.27,55,56.63,123,56.63,24.42,0,47.19-3.28,66.33-8.94a44.13,44.13,0,0,0,21,5.11c19.66,0,35.59-11.82,35.59-26.4a19.64,19.64,0,0,0-.35-3.69c16.8-4.6,28.06-13,28.09-22.68C1887.06,103.45,1893.17,96.14,1893.17,88Z"/></svg>