<svg xmlns="http://www.w3.org/2000/svg" xmlns:xlink="http://www.w3.org/1999/xlink" viewBox="0 0 986.66 607.2"><defs><style>.cls-1{stroke-miterlimit:10;stroke-width:2px;fill:url(#linear-gradient);stroke:url(#linear-gradient-2);}</style><linearGradient id="linear-gradient" x1="493.31" y1="638.02" x2="493.31" y2="33.2" gradientUnits="userSpaceOnUse"><stop offset="0.13" stop-color="#69523a"/><stop offset="0.2" stop-color="#7a5f40"/><stop offset="0.3" stop-color="#8e6f47"/><stop offset="0.4" stop-color="#9a784b"/><stop offset="0.5" stop-color="#9e7b4c"/><stop offset="0.76" stop-color="#785d3f"/><stop offset="0.9" stop-color="#69523a"/></linearGradient><linearGradient id="linear-gradient-2" x1="493.33" y1="607.2" x2="493.33" gradientUnits="userSpaceOnUse"><stop offset="0.18" stop-color="#69523a"/><stop offset="0.29" stop-color="#876944"/><stop offset="0.4" stop-color="#9e7b4c"/><stop offset="0.5" stop-color="#8a6c45"/><stop offset="0.65" stop-color="#72593d"/><stop offset="0.75" stop-color="#69523a"/></linearGradient></defs><g id="Layer_2" data-name="Layer 2"><g id="TREE"><path class="cls-1" d="M616.38,525.6c18.51,20.11,30.8,19.26,53.79,29.65,3.09,4.08,4.76,7.17,9.91,9.1,5.92,3.37,8.89,9,12.43,14.31-1.58,1-2.5-.14-3.45-.7-7.49-5.93-19.13-6.69-24.69-14.53-6.17-8.22-20.11-3.95-28.41-9.38-14.39-10.59-29.41-19.66-47.79-21.53-11.85.34-22.49-8.57-33.37-9.07-13.48,15.47,40,34.57,51.14,37.61,11.73,4.54,22.86,10.88,35,14.83,15.24,5-15,1.11-19.36-.29-8.86-2.77-13.28-1.71-23.31-3.66-1.46,6.93-3.92,12.64-4.59,19-3.69-8.83,1.22-29.15-10.16-29.78-17.07-1.56-35.17-7.69-52-3.76-4.66,1.46-20.84,3.82-15.18-5.07,3.06-3.2,7.61-4.27,9.87-8.08-9.35-5.46-19.37-2.66-29.48.09-6,3-11.68,6.52-18.08,8.67a2.19,2.19,0,0,0,2,2.22c13.36,2.85,24,11,35.3,17.92,12.19,8.62,31.09,7.61,41,18.84a1.38,1.38,0,0,1-2,.78c-13-5.12-26.72-7.48-40.39-10.17-8.39-1.66-16.9-3.86-23.88-9.57-9.9-4.46-19.76.76-29.45,3.49-9.91,2.78-17.65,3.33-26.38,6.93a164.07,164.07,0,0,1-18.11,4.92c-3.69.74-13.68,2-8.57-.9,10.77-6.19,16.11-7.73,30.4-10.21a134.92,134.92,0,0,0,13.71-3.9c8.79-2.84,17.62-6.08,25.8-9.63-.73-2.09-2.64-1.81-4.07-2.33-7.28-1.49-12.9-10-3.95-13.89,2.12-2.12,16.91-3.07,10.73-6.64-22.93-16.37-46.31-3.38-67.33,9.5-5.76,7.15-14.8,6.12-22.7,8.19-4.54.61-8.66,1.72-10.8,6.46-6.76,6.13-17.24,8-24.76,13.65a1.18,1.18,0,0,1-1.72-.24c4.1-10.94,15.74-14.73,22.33-23.36,21.79-9.91,36.34-10.41,53.61-29.64-10.51-1.54-18.68,5.44-27.46,8.21-16.27.22-46.71,1.49-53.28,19-1.47,16.34-20.78,16.71-29.23,28.29-9.68,8.77-19,20-31.17,24.92a1.94,1.94,0,0,1,.64-2.94c9.06-7,16.15-15.84,22.43-25.24,5.29-7.91,12.74-12.74,20.85-17,23.94-17.07-23.21,4.53-27.94,6.86-17.75,7.23-37,10.47-52.81,22-6.62,2.76-19.66,12.46-25.65,8.06-.51-2.26,2.44-3,4-3.76,18.68-6.07,33.25-17.36,49.88-27.6-12.43-2.44-23.29,2.19-34.54,6.17-4.54,3.64-65,14.08-39.5,3.35-21.84-.22-33.38,11.31-51.58,19.69-7.22-1-17.7,6-22.6,4.05-.26-8.71,13.9-7.88,20-11.1-1.16-1.61-2.41-.86-3.45-1-1.61-.21-3.54-.15-3.48-2.38,1.74-4.69,9.59-2.66,13.68-4.21,16.64-2.15,32-9.73,48.94-10.75,2.8-.36,5.62-.15,6.78-3.78,12.22-6.83,27.81-9.81,39.87-18.23,18.65-12-19.06-3.32-25.22-3.41-12,2.56-22.24,10.64-34.56,12.59-1.17.34-2.52.55-3.12-.89-.32-4,5.16-3.77,8.37-5.91-14.36.66-28,7.43-43,5.64-20.26-1.06-40.1,3.47-60.07,5.48-11.58,2.24-22.15,7.35-33.22,11-9.64-1.58,4.1-7.06,7-9.1-17.53-1.68-46.26,9.94-62,1-1.78-1.58-6.2-3.74-6.61-4.2-1.48-1.63,2-2.38,3.57-2.39,28.56,2.63,64.9-5,92.92-8.32,21,3.22,42-4.42,63.27-2.36,21.31-.59,41.89-8.33,62.65-12.88,72.46-10.39,146.57-13.17,216.82-35.95C457.86,495,469.18,481,482,470.05c10-12.85,4.9-32.94,7.22-48.5.38-20.42,2-40.71,8.49-60.27,3.39-20.92-4-30-6.6-50.84-1.06-4.95-1.42-5.08-6.36-5.52-27.85-1.4-80.85,13.82-106.86,25.94-17.84,6-84.09.11-101.21-4.54-9.06-2.87-5.83-12.52,3.24-8.77,47.54,18.68,72.26,9.33,113.18-7,10.06-4,26.9-24.44,89.8-28.45,1.82-.12-1.06-1.92-2.12-2.27-14.46-3.61-28.55-11.79-43.49-12.16-11.22,0-23.17,5.36-34,2.27-5.34-2.53-10.64-2.19-15.84,0-15.38,5.12-31.21-5.3-47.07.62-15.07,1.15-28.56,13.14-43.62,10-3.82-1.78-13.06-1.38-12.47-7.07,1.4-4.13,6.18-1.41,9-.61a24.81,24.81,0,0,0,18.73-.71c15.38-7.14,30.85-8.72,47.69-11.13-18.61-4.89-35.06-12.77-54-15.1-12.64-4.39-1.23-14.31,7.71-10.8,21.32,3.88,40.75,15.24,62.54,16.55-3.57-6.22-3.5-15-10.29-17.92-12.4-6.76-25.06-13-37.92-18.83-6.23-4.09-22.07-.88-22.33-10.21,7.35-6.21,66.57,20.75,70.33,30.68,10.34,35.14,42.47,25.5,70.07,19.78,11-1.83,22-3,33-.2,2.09.53,5.39,2.15,6.63-.29s-2.13-3.88-3.6-5.65c-22.72-22.71-50.29-39.93-79-54a30,30,0,0,1-11.24-9c-14.35-19.91-42.19-16.46-63.62-22.42-6.88-.28-12.26-5.43-18.68-6.24-5.19.8-11.62-5.84-8.27-10.51,4-4.48,10.08,1.54,13.61,4,14.22,9.56,31.62,7.64,48.76,12.29-3-3.16-6.14-4-8.5-6-5.64-5.3,5.93-6.65,8.84-3.72,22.9,14.42,41.12,34.29,68.26,40.91.15-7.47,5.95-18.95-3-22.8-7.41-2.08-14.28-5.55-21.38-8.44-7.6-3-17.79-3.36-23-10.52-3.11-8-20.12-25.32-15.62-32.4,14.68-3.41,12.74,28.34,27.42,30.59,10.29,3.57,20.38,7.71,30.64,11.36,20.8,8.84,5.89,41.09,43.32,61.7,2.65,2,9.94,8.43,8.52,1.07-1-15.35-5.77-30.94-4-46.26.83-2.88,0-5.08-1.83-7.21-13.5-15.8-25.14-33.09-39.05-48.57-7.25-7.5-50.14-38.81-60.38-39.61-28.35-4.21-57.76-28.1-61.27-34,9.92.82,68.51,20.91,74,24.47,52.84,34.07-7.16-37.88-13.86-52.81-1.24-2.29-7.43-15.3-7.61-16.15,2.32-24.29,56.89,76.32,61.2,82.52C441,111.19,457,134.15,473.65,156.75c4.92,8.47,17.21,13.6,15.2,24.78,2,21.17,14,39.34,23.63,58.09,5.36-14.83,12.87-31.2,5.57-46.45-3.7-15.27-2.68-31.44-12.84-44.69-7.06-11.42-34.89-13.15-25.58-31.21,5-9.47,15.51-20.06,2.37-27.57-27.27-23.68-49.74-52.43-80.59-72-5-2.88-5.66-13.14,2-11.28,17.58,10,32.41,24.07,46.48,38.43a94.24,94.24,0,0,0,19.56,16.1c10.3,5,12.65,16.09,22.3,21.91,2-6.39,3.67-12.42,2.55-19-2-3.62,11.33-38.87,13.09-28.61,1.51,5.78-11.4,32.23-7.29,36.46,2.25.81,3.19-1.08,4-2.75,5.51-11.36,21.79-39,30.09-48.41,2.71-2.69,10.6-11.34,11.77-3.26-.67,9.06-17.15,33.18-20.21,41.67,5.93-4.3,22.29-38.73,28.64-38.18,2.05,1.29,1.36,3.21.3,4.77-10.47,13.42-30,44.86-42.15,56.72-9.91,6.81-26.88,36.44-15.66,45.82,6.27,6.07,14.14,9.42,17.31,18.5,17.23-15.49,14.76-43.79,27.48-63,9.2-18.85,19-37.42,26-57.27,1-2.79,3.46-5.74,6.72-4.45,7.67,5.19-4.45,34.72-6.28,43.6-7.4,22.41-11.44,45.76-18,68.44-1.22,6.29-2.87,13.58-.32,19.61,2.37,2.94,2.52,6.26,1.77,9.75-.94,19.33-1.15,38.67-1.85,58.46,8.52-9.8,13.83-24.21,15.53-37.42.18-2.66.85-5.18,3.19-6.9,12.92-13.27,29.62-24.22,36.79-41.78,9.53-21.67,27.33-37.93,33.88-60.93,4.25-8.89,11.19-37.22,22.73-35.59,1.79.42,2.89-1.14,4-2.3,2.7-5.23,12.5-5.42,10.23,2-8.6,11.28-15.5,23.55-22,36.11-10.94,19.79-28.66,34.67-38.49,55.17,15.4-8.73,23.22-29.15,37.06-39.88,25.86-17.3,56.09-25.39,84.15-38.11,16.83,3.14-8.92,22.07-16.1,23.55-8.87,3.45-18.58,4.15-27.23,8.12-3.11,1.63-6.16,2.81-9.8,1.47-2.52-.92-4.71.69-6.79,1.86-10.93,7.69-24.6,10.43-32.13,22.35,29.62-8.63,59.84-11,89.4-19.59,19.22-5.73,39.28-7.13,58.66-11.73,10.78-4.27,12.07,15.53,2,16.35-2.09.51-4.35.56-5.45-1.43-5.85-8.54-41.71,4.66-52.19,5.91-34.75,12.25-77.18,7.2-107.06,30.52-12,12.61-24.5,25.67-33.32,40.53,5.72,1.06,11.7-4.32,16.65-7.06a605.66,605.66,0,0,0,54.93-36.38c3.5-4.23,11.47-2.91,6.7,3-19,15.12-39.64,27.61-60.26,40.34-15.55,8.84-36.83,12.26-37,34.42-.22,2.62-.25,5.27-1.12,7.76-.66,10.4,17.14,12.09,25.11,10.33,7.57-.29,18.25-5.21,24.36.68,35.75,21.7,51.5.05,81.79,5.53,4.13,1.21,2.82,7.54-1.56,6.07-8.6-2.32-16.82.39-25.11,1.88-19.29,5.81-28.8,4.47-47.5-2.82,10.75,15.79,16.57,17.13,25.73,20.26,9.38,3.2,37.4,4.89,28.85,4.7,9.34-.06,80.65-.81,86.31.67,6.43-.42-63.9,4.22-72.45,6.26-9.12.71-20.79-1.65-29.69-1,14.71,12.59,52.65,60.82,59,87.72-4-1.79-13.41-10.74-21.91-28.4-11.23-23.34-28.84-35.11-39.25-45.64-38-35.64-13.85-18.62-62.62-16.36-6.38-1.24-8.54-2.16-12.23-4.31-3.84-2.24-7.75-4.37-11.74-6.34-10.25-5-8.55-6.68-17.49,2.61-8.81,10.1-23.86,18.14-21.16,33.71,1.58,6.57-1.67,16.67,6.92,18.73,2.53,1.23,4.81.82,6.46-1.43,5.71-7.59,14.2-10.58,22.95-12.72,7.33-1.79,24.29,3.67,31.71,5,18.79-7,22.07-19.68,45.92-22.66,5.67,1.06,3,1.6-1.35,4.33-5.66,3.57-32.64,9.24-28.32,21.46,9.39,6.26,64.89,15.23,67.83,17.59-2.34,1.77-61.62-9.39-63.72-10-12.37-3-33.57-13.8-64.1-.35-9.46,4.76-13.5,14.67-20.09,10.38-13.55-8.81,1.85,74.25-4.64,85.84-5.42,26.36,7.48,46.94,19.43,69.12,10.1,12.52,28,18.63,41.94,26.35,57.42,15.16,115.78,25.33,175.1,29.4,34.17,1.19,66.12,14.51,99.73,18.39,20.23-1.55,40.31,3.25,60.3,3.29,12.88-3,25.54,2,38.22,3.83.76.14,1.59.19,2,2-7.78,1-15.56.37-23.66.92,4.71,4,27.57,7.1,27.88,14.09-8.75,2.9-26.91-9.86-37.94-10.78-33.39-5.07-67.39-2.19-100.38-10,19,10-4.81,6-11.27,1.72-15.24-8.9-32.66-10.09-49.86-10.6,8.49,13.16,28,16.18,41.73,22.58,5.63,2.31,4.4,6.11,12.4,6,18.5,2.26,35.66,10,54.32,11.69,2.34.54,6.36-.21,6.33,3.09-.07,4.11-4.82.86-6.35,3.12,5.77,3.89,20.22,2.44,19.68,11.36-4.71,2.48-10.57-4.25-16-3.2-23.17-3.26-29.17-20.69-59.89-21.23,22,9.06-6.62,3.69-13.32,3.42-21.32-1.39-37.67-15.65-60-12.48,17.43,10.09,31.69,21.7,50.71,27.9,1.81.54,4.67,1.17,3.8,3.71-9.26,5.58-32.92-15-43.59-18-23.73-7.56-46.08-16.81-69-26.61-.85,8.08,23.29,13.18,28.42,26.28,5.6,10.4,15.79,17.08,22.73,26.07-20.07-5.84-31.24-29.94-50.94-38-12.8-4.46-7.1-22.53-21.16-25.65-12.79-6.38-26.25-8.64-40.46-8-3.51-.12-6.83-.8-9.27-3.68C630.91,526.08,623.32,526,616.38,525.6Zm208,42.52c-14.17-7.9-30.19-10.32-43.93-18.54a121,121,0,0,0-42.79-15.39c-17.29-3-34.79-2.87-52.28-3.18,27,14.15,56.66,19.64,86.47,24.64C790.08,556.83,806.18,568,824.4,568.12ZM359.6,531.6a234.43,234.43,0,0,0-71.77,7c-21.21,11.14-41.78,18.76-63.9,28.57,15.64,1.33,28-8.92,43.41-10.39C298.91,551.23,330.81,546.52,359.6,531.6ZM585.43,241.35c22.22,12.79,19.81,13.73,45.74,7.9,6.18-2.25-1.76-5.94-3.44-8.41C616.66,228.53,599.5,238.49,585.43,241.35Z"/></g></g></svg>